<svg xmlns="http://www.w3.org/2000/svg" viewBox="0 0 449 236.57"><defs><style>.cls-1{fill:#1a1a1a;}.cls-2{fill:gray;}.cls-3{fill:#7c0d1d;}</style></defs><g id="Warstwa_2" data-name="Warstwa 2"><g id="Warstwa_1-2" data-name="Warstwa 1"><ellipse class="cls-1" cx="224.5" cy="129.42" rx="223.5" ry="106.15"/><path class="cls-2" d="M224.5,24.27c59.67,0,115.75,11.07,157.88,31.19,20.38,9.72,36.35,21,47.48,33.58C441.23,101.87,447,115.46,447,129.42S441.23,157,429.86,169.8c-11.13,12.56-27.1,23.85-47.48,33.58-42.13,20.11-98.21,31.19-157.88,31.19S108.75,223.49,66.62,203.38c-20.38-9.73-36.35-21-47.48-33.58C7.77,157,2,143.38,2,129.42S7.77,101.87,19.14,89c11.13-12.56,27.1-23.86,47.48-33.58,42.13-20.12,98.21-31.19,157.88-31.19m0-2c-124,0-224.5,48-224.5,107.15S100.51,236.57,224.5,236.57,449,188.59,449,129.42,348.49,22.27,224.5,22.27Z"/><ellipse class="cls-1" cx="224.5" cy="126.19" rx="223.5" ry="109.38"/><path class="cls-2" d="M224.5,17.8c59.67,0,115.73,11.41,157.86,32.13,20.38,10,36.35,21.66,47.48,34.59C441.23,97.76,447,111.78,447,126.19s-5.77,28.42-17.16,41.66c-11.13,12.94-27.1,24.57-47.48,34.59-42.13,20.72-98.19,32.13-157.86,32.13S108.77,223.16,66.64,202.44c-20.38-10-36.35-21.65-47.48-34.59C7.77,154.61,2,140.59,2,126.19S7.77,97.76,19.16,84.52C30.29,71.59,46.26,60,66.64,49.93,108.77,29.21,164.83,17.8,224.5,17.8m0-2C100.51,15.8,0,65.22,0,126.19S100.51,236.57,224.5,236.57,449,187.15,449,126.19,348.49,15.8,224.5,15.8Z"/><ellipse class="cls-1" cx="224.5" cy="117.73" rx="223.5" ry="108.83"/><path class="cls-2" d="M224.5,9.9c59.67,0,115.73,11.35,157.87,32,20.37,10,36.34,21.55,47.47,34.42C441.23,89.46,447,103.4,447,117.73s-5.77,28.28-17.16,41.45c-11.13,12.87-27.1,24.45-47.47,34.42-42.14,20.61-98.2,32-157.87,32s-115.73-11.36-157.87-32c-20.37-10-36.34-21.55-47.47-34.42C7.77,146,2,132.07,2,117.73S7.77,89.46,19.16,76.29c11.13-12.87,27.1-24.45,47.47-34.42,42.14-20.62,98.2-32,157.87-32m0-2C100.51,7.9,0,57.08,0,117.73S100.51,227.57,224.5,227.57,449,178.39,449,117.73,348.49,7.9,224.5,7.9Z"/><ellipse class="cls-1" cx="224.5" cy="108.28" rx="223.5" ry="107.28"/><path class="cls-2" d="M224.5,2c59.67,0,115.74,11.19,157.88,31.52,20.37,9.82,36.34,21.24,47.47,33.93,11.38,13,17.15,26.71,17.15,40.83s-5.77,27.86-17.15,40.83c-11.13,12.7-27.1,24.11-47.47,33.94-42.14,20.32-98.21,31.52-157.88,31.52s-115.74-11.2-157.88-31.52c-20.37-9.83-36.34-21.24-47.47-33.94C7.77,136.14,2,122.4,2,108.28S7.77,80.43,19.15,67.45c11.13-12.69,27.1-24.11,47.47-33.93C108.76,13.19,164.83,2,224.5,2m0-2C100.51,0,0,48.48,0,108.28S100.51,216.57,224.5,216.57,449,168.09,449,108.28,348.49,0,224.5,0Z"/><path class="cls-3" d="M226.07,126c-35.29,0-64-13.24-64-29.53S190.78,67,226.07,67s64,13.25,64,29.53S261.37,126,226.07,126Z"/><path class="cls-2" d="M226.07,68c17.08,0,33.1,3.11,45.12,8.76,11.54,5.41,17.89,12.44,17.89,19.77s-6.35,14.36-17.89,19.78c-12,5.64-28,8.75-45.12,8.75S193,121.91,181,116.27c-11.53-5.42-17.89-12.44-17.89-19.78S169.42,82.13,181,76.72C193,71.07,209,68,226.07,68m0-2c-35.9,0-65,13.67-65,30.53s29.11,30.53,65,30.53,65-13.67,65-30.53S262,66,226.07,66Z"/><path d="M225.82,97.41c-3.39,0-5.46-1.21-5.46-1.87s2.07-1.88,5.46-1.88,5.47,1.22,5.47,1.88S229.21,97.41,225.82,97.41Z"/><path d="M225.82,94.66a8.61,8.61,0,0,1,4.17.88,10.4,10.4,0,0,1-8.33,0,8.6,8.6,0,0,1,4.16-.88m0-2c-3.57,0-6.46,1.29-6.46,2.88s2.89,2.87,6.46,2.87,6.47-1.29,6.47-2.87-2.9-2.88-6.47-2.88Z"/></g></g></svg>