<?xml version="1.0" encoding="utf-8"?>
<!-- Generator: Adobe Illustrator 25.1.0, SVG Export Plug-In . SVG Version: 6.00 Build 0)  -->
<svg version="1.1" id="Component_1_4" xmlns="http://www.w3.org/2000/svg" xmlns:xlink="http://www.w3.org/1999/xlink" x="0px"
	 y="0px" viewBox="0 0 227.5 176" style="enable-background:new 0 0 227.5 176;" xml:space="preserve">
<style type="text/css">
	.st0{fill:none;}
	.st1{fill:none;stroke:#393838;stroke-width:3;stroke-linejoin:round;}
	.st2{fill:none;stroke:#707070;}
	.st3{fill:#393838;}
	.st4{fill:#383838;}
	.st5{font-family:'OriyaMN-Bold';}
	.st6{font-size:25px;}
</style>
<g id="Rectangle_3" transform="translate(0 29)">
	<rect x="0.2" y="-0.5" class="st0" width="227" height="139"/>
	<rect x="1.8" y="1" class="st1" width="224" height="136"/>
</g>
<line id="Line_4" class="st2" x1="0.8" y1="56" x2="227.8" y2="56"/>
<line id="Line_5" class="st2" x1="0.8" y1="82" x2="227.8" y2="82"/>
<line id="Line_6" class="st2" x1="0.8" y1="108" x2="227.8" y2="108"/>
<line id="Line_7" class="st2" x1="0.8" y1="136" x2="227.8" y2="136"/>
<line id="Line_8" class="st2" x1="173.8" y1="29" x2="174.8" y2="168"/>
<line id="Line_9" class="st2" x1="113.8" y1="29" x2="113.8" y2="168"/>
<line id="Line_10" class="st2" x1="53.8" y1="29" x2="53.8" y2="168"/>
<g id="Ellipse_1" transform="translate(175 128)">
	<ellipse class="st3" cx="9.2" cy="8" rx="9" ry="8.5"/>
	<ellipse class="st2" cx="9.2" cy="8" rx="8.5" ry="8"/>
</g>
<g id="Ellipse_2" transform="translate(54 48)">
	<ellipse class="st3" cx="9.2" cy="8" rx="9" ry="8.5"/>
	<ellipse class="st2" cx="9.2" cy="8" rx="8.5" ry="8"/>
</g>
<g id="Ellipse_3" transform="translate(120 74)">
	<ellipse class="st3" cx="9.2" cy="8" rx="9" ry="8.5"/>
	<ellipse class="st2" cx="9.2" cy="8" rx="8.5" ry="8"/>
</g>
<text transform="matrix(1 0 0 1 100.014 21.4979)" class="st4 st5 st6">C</text>
</svg>
