<svg id="Capa_1" enable-background="new 0 0 512 512" height="512" viewBox="0 0 512 512" width="512" xmlns="http://www.w3.org/2000/svg"><g><path d="m512 256c0 141.38-114.62 256-256 256-6.62 0-13.18-.25-19.67-.75-52.45-3.98-100.47-23.76-139.33-54.61-2.63-2.07-5.21-4.21-7.75-6.39-3.66-3.14-7.22-6.38-10.69-9.74-2.41-2.29-4.77-4.65-7.08-7.06-3.34-3.47-6.59-7.04-9.73-10.7-2.18-2.54-4.31-5.12-6.39-7.75-25.12-31.65-42.91-69.39-50.79-110.63-1.8-9.4-3.08-18.97-3.82-28.7-.5-6.49-.75-13.05-.75-19.67 0-141.38 114.62-256 256-256s256 114.62 256 256z" fill="#80b4fb"/><g><path d="m303.16 388.51c-6.79 6.8-14.41 12.34-22.62 16.67-17.03 8.97-27.83 26.59-28.54 45.83-.79 21.31-5.97 41.87-15.67 60.24-125.7-9.54-226.04-109.88-235.58-235.58 18.37-9.7 38.93-14.88 60.25-15.67 19.23-.7 36.85-11.51 45.82-28.54 4.33-8.21 9.88-15.83 16.67-22.62 42.33-42.34 116.88-36.43 166.49 13.18 49.62 49.62 55.52 124.16 13.18 166.49z" fill="#ffbb16"/><path d="m258.001 314.195c17.82 49.329-48.49 207.345-129.614 154.438s27.512-116.395 27.512-116.395" fill="#454045"/><path d="m288.02 220.11c-41.88-39.81-108.6-38.69-150.28 2.99-6.78 6.79-12.5 14.24-17.14 22.14-9.6 16.4-26.68 27.74-44.44 29.92-25.38 3.11-50.18 12.85-71.59 29.21-1.8-9.4-3.08-18.97-3.82-28.7 18.37-9.7 38.93-14.89 60.25-15.68 19.23-.7 36.86-11.5 45.82-28.53 4.33-8.21 9.87-15.84 16.66-22.62 41.79-41.79 114.94-36.59 164.54 11.27z" fill="#ff931f"/><circle cx="166.767" cy="345.235" fill="#f1f4f6" r="73.159"/><path d="m137.892 188.799h285.489v85.13h-285.489z" fill="#b27042" transform="matrix(.707 -.707 .707 .707 -81.402 266.205)"/><g fill="#454045"><path d="m364.765 76.866h144.988v15.297h-144.988z" transform="matrix(.707 .707 -.707 .707 187.831 -284.435)"/><path d="m330.435 111.197h144.988v15.297h-144.988z" transform="matrix(.707 .707 -.707 .707 202.052 -250.104)"/><path d="m322.767 139.017h15.3v85.13h-15.3z" transform="matrix(.707 -.707 .707 .707 -31.621 286.825)"/><path d="m285.388 176.397h15.3v85.13h-15.3z" transform="matrix(.707 -.707 .707 .707 -69 271.342)"/><path d="m254.35 207.435h15.3v85.13h-15.3z" transform="matrix(.707 -.707 .707 .707 -100.039 258.485)"/><path d="m225.662 236.123h15.3v85.13h-15.3z" transform="matrix(.707 -.707 .707 .707 -128.726 246.602)"/><circle cx="166.767" cy="345.235" r="51.731"/></g><g fill="#f1f4f6"><path d="m364.483 35.203c8.636 8.636 29.709 15.707 38.345 7.071s1.565-29.709-7.071-38.345-15.567-1.565-24.203 7.071-15.707 15.567-7.071 24.203z"/><path d="m327.667 72.019c8.636 8.636 29.709 15.707 38.345 7.071s1.565-29.709-7.071-38.345-15.567-1.565-24.203 7.071-15.707 15.567-7.071 24.203z"/><path d="m476.797 147.517c-8.636-8.636-15.707-29.709-7.071-38.345s29.709-1.565 38.345 7.071 1.565 15.567-7.071 24.203-15.567 15.707-24.203 7.071z"/><path d="m439.981 184.333c-8.636-8.636-15.707-29.709-7.071-38.345s29.709-1.565 38.345 7.071 1.565 15.567-7.071 24.203-15.567 15.707-24.203 7.071z"/></g><g fill="#f1f4f6"><path d="m367.82 116.68-306.07 306.07c-2.18-2.54-4.31-5.12-6.39-7.75l305.39-305.39z"/><path d="m385.11 133.96-306.55 306.55c-2.41-2.29-4.77-4.65-7.08-7.06l306.56-306.56z"/><path d="m402.39 151.25-305.39 305.39c-2.63-2.07-5.21-4.21-7.75-6.39l306.07-306.07z"/></g><path d="m492.532 83.228-13.534-35.511c-2.588-6.774-7.941-12.127-14.708-14.708l-35.518-13.541c-9.362-3.564-19.955-1.301-27.04 5.784l-57.841 57.841c-9.935 9.935-9.928 26.036 0 35.963l49.052 49.052c9.935 9.935 26.029 9.935 35.963 0l57.841-57.841c7.086-7.085 9.356-17.67 5.785-27.039zm-98.726 25.088c-5.975 5.975-15.655 5.968-21.623 0-5.975-5.975-5.982-15.655-.007-21.63l39.973-39.973c5.975-5.975 15.662-5.975 21.637 0 2.984 2.984 4.476 6.894 4.476 10.812 0 3.917-1.499 7.835-4.483 10.819zm31.508 31.509c-5.975 5.975-15.648 5.975-21.623 0s-5.982-15.655-.007-21.63l39.973-39.973c5.975-5.975 15.662-5.975 21.637 0 2.984 2.984 4.483 6.901 4.476 10.812 0 3.917-1.499 7.835-4.483 10.819z" fill="#ffbb16"/><path d="m434.592 25.288 31.042 9.065c2.956.863 5.53 2.39 7.58 4.441-2.51-2.51-5.544-4.497-8.924-5.784l-35.518-13.541c-9.362-3.564-19.955-1.301-27.04 5.784l-57.841 57.841c-9.935 9.935-9.928 26.036 0 35.963l4.476 4.476c-8.118-8.118-6.654-22.748 3.281-32.682l57.841-57.841c7.085-7.086 16.921-10.105 25.103-7.722z" fill="#ff931f"/></g></g></svg>