<svg xmlns="http://www.w3.org/2000/svg" width="733.509" height="723.967" viewBox="0 0 733.509 723.967"><g transform="matrix(0.719, -0.695, 0.695, 0.719, 2.492, 355.665)"><path d="M512,256c0,141.38-114.62,256-256,256q-9.93,0-19.67-.75A254.6,254.6,0,0,1,97,456.64c-2.63-2.07-5.21-4.21-7.75-6.39q-5.49-4.71-10.69-9.74-3.615-3.435-7.08-7.06-5.01-5.205-9.73-10.7-3.27-3.81-6.39-7.75A254.787,254.787,0,0,1,.75,275.67Q0,265.935,0,256C0,114.62,114.62,0,256,0S512,114.62,512,256Z" fill="#80b4fb"/><path d="M303.16,388.51a93.5,93.5,0,0,1-22.62,16.67A54.006,54.006,0,0,0,252,451.01a139.679,139.679,0,0,1-15.67,60.24C110.63,501.71,10.29,401.37.75,275.67A139.686,139.686,0,0,1,61,260a53.982,53.982,0,0,0,45.82-28.54,93.759,93.759,0,0,1,16.67-22.62c42.33-42.34,116.88-36.43,166.49,13.18s55.52,124.16,13.18,166.49Z" fill="#ffbb16"/><path d="M258,314.2c17.82,49.329-48.49,207.345-129.614,154.438S155.9,352.238,155.9,352.238" fill="#454045"/><path d="M288.02,220.11c-41.88-39.81-108.6-38.69-150.28,2.99a110.614,110.614,0,0,0-17.14,22.14c-9.6,16.4-26.68,27.74-44.44,29.92A147.3,147.3,0,0,0,4.57,304.37a255.553,255.553,0,0,1-3.82-28.7A139.7,139.7,0,0,1,61,259.99a53.959,53.959,0,0,0,45.82-28.53,93.523,93.523,0,0,1,16.66-22.62C165.27,167.05,238.42,172.25,288.02,220.11Z" fill="#ff931f"/><circle cx="73.159" cy="73.159" r="73.159" transform="translate(93.608 272.076)" fill="#f1f4f6"/><path d="M137.892,188.8H423.381v85.13H137.892Z" transform="translate(-81.402 266.205) rotate(-45)" fill="#b27042"/><path d="M364.765,76.866H509.753v15.3H364.765Z" transform="translate(187.831 -284.435) rotate(45)" fill="#454045"/><path d="M330.435,111.2H475.423v15.3H330.435Z" transform="translate(202.052 -250.104) rotate(45)" fill="#454045"/><path d="M322.767,139.017h15.3v85.13h-15.3Z" transform="translate(-31.621 286.825) rotate(-45)" fill="#454045"/><path d="M285.388,176.4h15.3v85.13h-15.3Z" transform="translate(-69 271.342) rotate(-45)" fill="#454045"/><path d="M254.35,207.435h15.3v85.13h-15.3Z" transform="translate(-100.039 258.485) rotate(-45)" fill="#454045"/><path d="M225.662,236.123h15.3v85.13h-15.3Z" transform="translate(-128.726 246.602) rotate(-45)" fill="#454045"/><circle cx="51.731" cy="51.731" r="51.731" transform="translate(115.036 293.504)" fill="#454045"/><path d="M364.483,35.2c8.636,8.636,29.709,15.707,38.345,7.071s1.565-29.709-7.071-38.345S380.19,2.364,371.554,11s-15.707,15.567-7.071,24.2Z" fill="#f1f4f6"/><path d="M327.667,72.019c8.636,8.636,29.709,15.707,38.345,7.071s1.565-29.709-7.071-38.345-15.567-1.565-24.2,7.071-15.707,15.567-7.071,24.2Z" fill="#f1f4f6"/><path d="M476.8,147.517c-8.636-8.636-15.707-29.709-7.071-38.345s29.709-1.565,38.345,7.071,1.565,15.567-7.071,24.2-15.567,15.707-24.2,7.071Z" fill="#f1f4f6"/><path d="M439.981,184.333c-8.636-8.636-15.707-29.709-7.071-38.345s29.709-1.565,38.345,7.071,1.565,15.567-7.071,24.2-15.567,15.707-24.2,7.071Z" fill="#f1f4f6"/><path d="M367.82,116.68,61.75,422.75q-3.27-3.81-6.39-7.75L360.75,109.61Z" fill="#f1f4f6"/><path d="M385.11,133.96,78.56,440.51q-3.615-3.435-7.08-7.06L378.04,126.89Z" fill="#f1f4f6"/><path d="M402.39,151.25,97,456.64c-2.63-2.07-5.21-4.21-7.75-6.39L395.32,144.18Z" fill="#f1f4f6"/><path d="M492.532,83.228,479,47.717A25.471,25.471,0,0,0,464.29,33.009L428.772,19.468a25.447,25.447,0,0,0-27.04,5.784L343.891,83.093a25.429,25.429,0,0,0,0,35.963l49.052,49.052a25.422,25.422,0,0,0,35.963,0l57.841-57.841A25.427,25.427,0,0,0,492.532,83.228Zm-98.726,25.088a15.295,15.295,0,0,1-21.63-21.63l39.973-39.973a15.3,15.3,0,1,1,21.63,21.631Zm31.508,31.509a15.295,15.295,0,0,1-21.63-21.63l39.973-39.973a15.3,15.3,0,1,1,21.63,21.631Z" fill="#ffbb16"/><path d="M434.592,25.288l31.042,9.065a17.621,17.621,0,0,1,7.58,4.441,25.421,25.421,0,0,0-8.924-5.784L428.772,19.469a25.447,25.447,0,0,0-27.04,5.784L343.891,83.094a25.429,25.429,0,0,0,0,35.963l4.476,4.476c-8.118-8.118-6.654-22.748,3.281-32.682L409.489,33.01c7.085-7.086,16.921-10.1,25.1-7.722Z" fill="#ff931f"/></g><g transform="translate(0 73.028)"><path d="M54.595,21.314,0,36.875V15.561L54.595,0Z" transform="translate(675.097 271.905) rotate(7)" fill="#a0c8ff"/><ellipse cx="15.319" cy="14.963" rx="15.319" ry="14.963" transform="translate(636.959 331.756) rotate(7)" fill="#a0c8ff"/><ellipse cx="15.165" cy="15.165" rx="15.165" ry="15.165" transform="translate(693.304 322.717) rotate(7)" fill="#a0c8ff"/><g transform="matrix(0.94, -0.342, 0.342, 0.94, 4.333, 190.186)"><path d="M0,29.176,35.3,19V0L0,10.172Z" transform="translate(27.044 0)" fill="#ff9b9b"/><ellipse cx="13.522" cy="13.522" rx="13.522" ry="13.522" transform="translate(0 53.162)" fill="#ff9b9b"/></g><path d="M31.183,49.182,11.911,59.314l3.681-21.46L0,22.656l21.547-3.131L31.183,0l9.636,19.525,21.547,3.131-15.592,15.2,3.681,21.46Z" transform="matrix(0.996, -0.087, 0.087, 0.996, 17.514, 330.334)" fill="#cbf4fb"/><path d="M29.855,47.086,11.4,56.787l3.524-20.545L0,21.691l20.629-3L29.855,0,39.08,18.693l20.629,3L44.782,36.241l3.524,20.545Z" transform="matrix(0.891, 0.454, -0.454, 0.891, 644.852, 139.875)" fill="#ffd88e"/><path d="M88.716,0a3.784,3.784,0,0,0-1.038.147v0l-10.889,3.1a3.791,3.791,0,1,0,2.078,7.292l6.059-1.727V22.243l-47.012,13.4V22.215L46.05,19.9A3.791,3.791,0,1,0,43.972,12.6l-10.89,3.1v0a3.79,3.79,0,0,0-2.752,3.643V67.578a18.949,18.949,0,1,0,7.583,15.155v-39.2l47.012-13.4V52.016a18.95,18.95,0,1,0,7.583,15.155V3.791A3.791,3.791,0,0,0,88.716,0ZM18.956,94.106A11.374,11.374,0,1,1,30.33,82.732,11.387,11.387,0,0,1,18.956,94.106ZM73.551,78.545A11.374,11.374,0,1,1,84.925,67.171,11.387,11.387,0,0,1,73.551,78.545Z" transform="translate(641.691 263.983) rotate(7)"/><path d="M67.753.679A3.383,3.383,0,0,0,64.784.132L29.489,10.3a3.38,3.38,0,0,0-2.444,3.248v43a16.9,16.9,0,1,0,6.761,13.513V35.1l32.851-9.467A3.38,3.38,0,0,0,69.1,22.384v-19a3.381,3.381,0,0,0-1.348-2.7ZM16.9,80.206A10.142,10.142,0,1,1,27.044,70.065,10.153,10.153,0,0,1,16.9,80.206ZM62.34,19.841,33.805,28.064V16.1L62.34,7.873Z" transform="matrix(0.94, -0.342, 0.342, 0.94, 0, 188.166)"/><path d="M66.974,22.7,47.523,19.871l-8.7-17.626a4.028,4.028,0,0,0-7.224,0L22.9,19.871,3.449,22.7a4.028,4.028,0,0,0-2.232,6.871l14.075,13.72L11.969,62.661a4.028,4.028,0,0,0,5.845,4.247l17.4-9.147,17.4,9.146a4.028,4.028,0,0,0,5.845-4.247L55.131,43.288l14.075-13.72a4.028,4.028,0,0,0-2.232-6.87ZM47.992,39a4.027,4.027,0,0,0-1.159,3.565l2.3,13.416L37.086,49.644a4.027,4.027,0,0,0-3.749,0L21.289,55.978l2.3-13.416A4.027,4.027,0,0,0,22.431,39l-9.747-9.5,13.47-1.957a4.028,4.028,0,0,0,3.033-2.2L35.212,13.13l6.024,12.206a4.028,4.028,0,0,0,3.033,2.2L57.738,29.5Z" transform="matrix(0.996, -0.087, 0.087, 0.996, 13.148, 326.673)"/><path d="M14.579,42.573,11.471,60.687a4.693,4.693,0,0,0,6.81,4.948l16.267-8.552,16.267,8.552a4.694,4.694,0,0,0,6.81-4.948L54.518,42.573,67.679,29.745a4.693,4.693,0,0,0-2.6-8.006L46.89,19.1,38.758,2.616a4.693,4.693,0,0,0-8.417,0L22.207,19.1,4.019,21.74a4.693,4.693,0,0,0-2.6,8.006ZM26,28.031a4.693,4.693,0,0,0,3.534-2.567L34.548,15.3l5.016,10.165A4.694,4.694,0,0,0,43.1,28.031l11.218,1.63L46.2,37.574a4.693,4.693,0,0,0-1.35,4.155L46.766,52.9,36.733,47.626a4.692,4.692,0,0,0-4.368,0L22.332,52.9l1.916-11.172a4.693,4.693,0,0,0-1.35-4.155L14.78,29.661Z" transform="matrix(0.891, 0.454, -0.454, 0.891, 642.8, 133.562)"/><path d="M6.154,0A6.154,6.154,0,0,0,0,6.154v6.154a6.154,6.154,0,0,0,12.309,0V6.154A6.154,6.154,0,0,0,6.154,0Z" transform="translate(103.833 444.857) rotate(20)"/><path d="M6.154,0A6.154,6.154,0,0,0,0,6.154v6.154a6.154,6.154,0,0,0,12.309,0V6.154A6.154,6.154,0,0,0,6.154,0Z" transform="translate(89.099 485.339) rotate(20)"/><path d="M12.309,0H6.154a6.154,6.154,0,0,0,0,12.309h6.154A6.154,6.154,0,0,0,12.309,0Z" transform="translate(112.763 474.304) rotate(20)"/><path d="M6.154,12.309h6.154A6.154,6.154,0,0,0,12.309,0H6.154a6.154,6.154,0,0,0,0,12.309Z" transform="translate(72.28 459.57) rotate(20)"/><path d="M3.791,7.583A3.793,3.793,0,0,0,7.583,3.791,3.786,3.786,0,0,0,3.791,0a3.791,3.791,0,0,0-2.68,6.472A3.82,3.82,0,0,0,3.791,7.583Z" transform="translate(697.94 278.731) rotate(7)"/><g transform="matrix(0.966, 0.259, -0.259, 0.966, 53.986, -7.384)"><g transform="translate(28.53 0)"><path d="M80.671,0C52.206,0,28.53,9.788,28.53,38.126c0,33.92,35.848,79.235,52.141,79.235,16.249,0,52.141-45.232,52.141-79.235C132.811,9.779,109.122,0,80.671,0Z" transform="translate(-28.53 0)" fill="#a0c8fd"/></g><path d="M308.141,38.126c0,34-35.891,79.235-52.141,79.235V0C284.451,0,308.141,9.779,308.141,38.126Z" transform="translate(-175.329 0)" fill="#92b5e3"/><g transform="translate(60.032 17.342)"><path d="M206.557,99.639l-11.864,2.372c.649-2.6,4.823-19.31,5.421-21.808a3.448,3.448,0,0,0-6.345-2.654c-.445.848-3.285,5.176-7.168,11-5.85,8.77-14.07,20.937-20.036,29.723a3.442,3.442,0,0,0,3.519,5.3l12.016-2.4-5.731,25.794a3.44,3.44,0,0,0,6.283,2.547l3.949-6.418,23.557-38.28a3.441,3.441,0,0,0-3.6-5.174Z" transform="translate(-165.962 -75.655)" fill="#2e2d2d"/></g><path d="M279.557,104.813,256,143.092V88.547c3.883-5.822,6.723-10.15,7.168-11a3.448,3.448,0,0,1,6.345,2.654c-.6,2.5-4.772,19.211-5.421,21.808l11.864-2.372A3.441,3.441,0,0,1,279.557,104.813Z" transform="translate(-175.329 -58.313)"/></g><g transform="translate(559.216 406.048) rotate(11)"><g transform="translate(28.53 0)"><path d="M80.84,0C52.283,0,28.53,9.82,28.53,38.25c0,34.03,35.964,79.492,52.31,79.492,16.3,0,52.31-45.379,52.31-79.492C133.151,9.81,109.384,0,80.84,0Z" transform="translate(-28.53 0)" fill="#fe9b9b"/></g><path d="M308.31,38.25c0,34.113-36.008,79.492-52.31,79.492V0C284.543,0,308.31,9.81,308.31,38.25Z" transform="translate(-175.16 0)" fill="#dd8989"/><g transform="translate(60.135 17.398)"><path d="M206.689,99.717l-11.9,2.38c.651-2.606,4.839-19.372,5.439-21.879a3.459,3.459,0,0,0-6.365-2.663c-.446.851-3.3,5.193-7.191,11.034-5.869,8.8-14.115,21.005-20.1,29.82a3.453,3.453,0,0,0,3.53,5.321l12.055-2.412L176.4,147.2a3.451,3.451,0,0,0,6.3,2.555l3.962-6.439,23.634-38.4a3.452,3.452,0,0,0-3.613-5.19Z" transform="translate(-165.962 -75.655)" fill="#2e2d2d"/></g><path d="M279.634,104.908,256,143.312V88.589c3.9-5.841,6.745-10.183,7.191-11.034a3.459,3.459,0,0,1,6.365,2.663c-.6,2.507-4.788,19.273-5.439,21.879l11.9-2.38A3.452,3.452,0,0,1,279.634,104.908Z" transform="translate(-175.16 -58.257)"/></g><path d="M6.154,0A6.154,6.154,0,0,0,0,6.154v6.154a6.154,6.154,0,0,0,12.309,0V6.154A6.154,6.154,0,0,0,6.154,0Z" transform="translate(103.833 444.857) rotate(20)"/><path d="M6.154,0A6.154,6.154,0,0,0,0,6.154v6.154a6.154,6.154,0,0,0,12.309,0V6.154A6.154,6.154,0,0,0,6.154,0Z" transform="translate(89.099 485.339) rotate(20)"/><path d="M12.309,0H6.154a6.154,6.154,0,0,0,0,12.309h6.154A6.154,6.154,0,0,0,12.309,0Z" transform="translate(112.763 474.304) rotate(20)"/><path d="M6.154,12.309h6.154A6.154,6.154,0,0,0,12.309,0H6.154a6.154,6.154,0,0,0,0,12.309Z" transform="translate(72.28 459.57) rotate(20)"/><path d="M6.154,0A6.154,6.154,0,0,0,0,6.154v6.154a6.154,6.154,0,0,0,12.309,0V6.154A6.154,6.154,0,0,0,6.154,0Z" transform="translate(584.676 45.509) rotate(-14)"/><path d="M6.154,0A6.154,6.154,0,0,0,0,6.154v6.154a6.154,6.154,0,0,0,12.309,0V6.154A6.154,6.154,0,0,0,6.154,0Z" transform="translate(595.098 87.309) rotate(-14)"/><path d="M12.309,0H6.154a6.154,6.154,0,0,0,0,12.309h6.154A6.154,6.154,0,0,0,12.309,0Z" transform="translate(608.546 64.928) rotate(-14)"/><path d="M6.154,12.309h6.154A6.154,6.154,0,0,0,12.309,0H6.154a6.154,6.154,0,0,0,0,12.309Z" transform="translate(566.745 75.35) rotate(-14)"/><path d="M6.154,0A6.154,6.154,0,0,0,0,6.154v6.154a6.154,6.154,0,0,0,12.309,0V6.154A6.154,6.154,0,0,0,6.154,0Z" transform="translate(584.676 45.509) rotate(-14)"/><path d="M6.154,0A6.154,6.154,0,0,0,0,6.154v6.154a6.154,6.154,0,0,0,12.309,0V6.154A6.154,6.154,0,0,0,6.154,0Z" transform="translate(595.098 87.309) rotate(-14)"/><path d="M12.309,0H6.154a6.154,6.154,0,0,0,0,12.309h6.154A6.154,6.154,0,0,0,12.309,0Z" transform="translate(608.546 64.928) rotate(-14)"/><path d="M6.154,12.309h6.154A6.154,6.154,0,0,0,12.309,0H6.154a6.154,6.154,0,0,0,0,12.309Z" transform="translate(566.745 75.35) rotate(-14)"/></g></svg>