<svg id="Capa_1" enable-background="new 0 0 512 512" height="512" viewBox="0 0 512 512" width="512" xmlns="http://www.w3.org/2000/svg" xmlns:xlink="http://www.w3.org/1999/xlink"><linearGradient id="SVGID_1_" gradientUnits="userSpaceOnUse" x1="83.376" x2="415.486" y1="410.439" y2="14.646"><stop offset="0" stop-color="#ffd9d9" stop-opacity="0"/><stop offset=".9981" stop-color="#ffb3b3"/></linearGradient><g><g><path d="m420.68 63.293c-177.885 27.736-180.07-59.657-308.409-38.059-144.463 24.312-134.635 260.596-54.219 357.769 140.965 170.34 427.892 124.487 392.85-148.607-4.695-36.591 21.924-56.298 47.037-78.131 31.541-27.421 11.786-106.856-77.259-92.972z" fill="url(#SVGID_1_)"/></g><g><g><g><g><g opacity=".1"><g><path d="m295.451 355.101h-18.583c-2.761 0-5-2.239-5-5s2.239-5 5-5h18.583c2.761 0 5 2.239 5 5s-2.239 5-5 5z" fill="#00c"/></g><g><path d="m335.451 375.483h-58.583c-2.761 0-5-2.239-5-5s2.239-5 5-5h58.583c2.761 0 5 2.239 5 5s-2.239 5-5 5z" fill="#00c"/></g><g><path d="m335.451 395.864h-58.583c-2.761 0-5-2.239-5-5s2.239-5 5-5h58.583c2.761 0 5 2.239 5 5s-2.239 5-5 5z" fill="#00c"/></g></g><path d="m448.245 174.65-23.393-3.716c-1.753-5.683-4.029-11.136-6.766-16.308l13.921-19.179c2.98-4.106 2.533-9.769-1.054-13.357l-19.92-19.92c-3.588-3.587-9.251-4.034-13.357-1.054l-19.179 13.92c-5.172-2.737-10.625-5.013-16.308-6.766l-3.716-23.393c-.796-5.011-5.117-8.699-10.19-8.699h-28.173c-5.073 0-9.394 3.688-10.19 8.699l-3.716 23.392c-5.443 1.679-10.668 3.85-15.644 6.434-24.319-28.2-60.492-45.888-100.785-45.304-70.089 1.015-127.317 58.07-128.532 128.156-.594 34.244 12.007 65.537 33.055 89.133 23.542 26.393 41.692 57.038 52.731 90.404-5.177 1.138-9.054 5.745-9.054 11.264v58.525c0 6.373 5.167 11.54 11.54 11.54h3.753c3.429 18.113 19.33 31.815 38.441 31.815s35.012-13.701 38.441-31.815h3.753c6.373 0 11.54-5.167 11.54-11.54v-58.525c0-5.522-3.882-10.133-9.064-11.267 10.989-33.3 29.022-63.921 52.558-90.197.935-1.044 1.847-2.107 2.748-3.181 4.639 2.331 9.481 4.317 14.517 5.87l3.716 23.393c.796 5.01 5.117 8.699 10.19 8.699h28.172c5.073 0 9.394-3.688 10.19-8.699l3.717-23.395c5.683-1.753 11.135-4.029 16.307-6.765l19.18 13.921c4.106 2.98 9.769 2.533 13.357-1.054l19.92-19.92c3.587-3.587 4.034-9.251 1.054-13.357l-13.92-19.178c2.737-5.172 5.014-10.625 6.766-16.309l23.392-3.716c5.011-.796 8.699-5.117 8.699-10.19v-28.171c.002-5.073-3.686-9.394-8.697-10.19zm-114.054 73.863c-7.036 0-13.726-1.475-19.789-4.119 5.044-13.894 7.795-28.887 7.795-44.523 0-16.246-2.976-31.794-8.401-46.14 6.223-2.814 13.123-4.393 20.395-4.393 27.392 0 49.594 22.201 49.594 49.594-.001 27.379-22.202 49.581-49.594 49.581z" fill="#00c" opacity=".1"/></g><g><g><path d="m448.245 150.65-23.393-3.716c-1.753-5.683-4.029-11.136-6.766-16.308l13.921-19.179c2.98-4.106 2.533-9.769-1.054-13.356l-19.921-19.921c-3.587-3.587-9.251-4.034-13.356-1.054l-19.179 13.92c-5.172-2.737-10.625-5.013-16.308-6.766l-3.716-23.393c-.796-5.011-5.117-8.699-10.19-8.699h-28.173c-5.073 0-9.394 3.688-10.19 8.699l-3.716 23.392c-5.684 1.753-11.137 4.029-16.309 6.766l-19.178-13.92c-4.106-2.98-9.769-2.533-13.356 1.054l-19.921 19.921c-3.587 3.587-4.035 9.251-1.054 13.356l13.921 19.179c-2.736 5.172-5.012 10.624-6.765 16.307l-23.394 3.717c-5.011.796-8.699 5.117-8.699 10.19v28.172c0 5.073 3.688 9.394 8.699 10.19l23.393 3.716c1.753 5.683 4.029 11.136 6.766 16.308l-13.92 19.179c-2.98 4.106-2.533 9.769 1.054 13.356l19.92 19.92c3.587 3.587 9.251 4.034 13.356 1.054l19.179-13.92c5.172 2.737 10.625 5.013 16.308 6.766l3.716 23.393c.796 5.01 5.117 8.699 10.19 8.699h28.172c5.073 0 9.394-3.688 10.19-8.699l3.717-23.395c5.683-1.753 11.135-4.029 16.307-6.765l19.18 13.921c4.106 2.98 9.769 2.533 13.356-1.054l19.921-19.92c3.587-3.587 4.034-9.251 1.054-13.356l-13.92-19.178c2.737-5.172 5.014-10.625 6.766-16.309l23.392-3.716c5.011-.796 8.699-5.117 8.699-10.19v-28.171c0-5.073-3.688-9.394-8.699-10.19zm-64.461 24.281c0 27.38-22.201 49.581-49.594 49.581-27.38 0-49.581-22.201-49.581-49.581 0-27.392 22.201-49.594 49.581-49.594 27.393.001 49.594 22.202 49.594 49.594z" fill="#9494ff"/><path d="m284.61 174.93c0-16.43 7.99-31 20.3-40.02-12.48-21.69-31.01-39.46-53.3-50.99l-14.17 14.17c-3.59 3.59-4.03 9.25-1.05 13.36l13.92 19.18c-2.74 5.17-5.02 10.62-6.77 16.3l-23.39 3.72c-5.01.8-8.7 5.12-8.7 10.19v28.17c0 5.07 3.69 9.4 8.7 10.19l23.39 3.72c1.75 5.68 4.03 11.13 6.77 16.31l-13.92 19.17c-2.98 4.11-2.54 9.77 1.05 13.36l19.92 19.92c3.59 3.59 9.25 4.04 13.36 1.06l19.18-13.92c4.72 2.49 9.68 4.61 14.84 6.29 7.49-12.95 12.83-27.32 15.49-42.6-20.58-6.02-35.62-25.05-35.62-47.58z" fill="#8383ff"/><path d="m331.56 273.943-4.132-26.009c2.228.205 4.483.309 6.762.309 2.283 0 4.543-.105 6.773-.31l-4.132 26.01zm49.446-42.628c3.478-2.892 6.687-6.101 9.579-9.578l15.49 21.341-3.727 3.727zm-118.689 11.763 15.489-21.34c2.892 3.477 6.101 6.686 9.578 9.578l-21.34 15.489zm-27.138-65.516v-5.271l26.01-4.132c-.205 2.23-.31 4.49-.31 6.773 0 2.28.105 4.535.309 6.762zm172.026 4.131c.205-2.227.309-4.482.309-6.761 0-2.283-.105-4.542-.31-6.773l26.009 4.132v5.271zm-16.621-53.577c-2.892-3.478-6.101-6.686-9.579-9.579l21.343-15.491 3.727 3.727zm-128.267-21.342 3.728-3.728 21.341 15.49c-3.477 2.892-6.686 6.101-9.578 9.58zm78.647-4.857c-2.23-.206-4.49-.31-6.773-.31-2.28 0-4.534.104-6.761.309l4.132-26.007h5.271z" fill="#b3b3ff"/></g><g><path d="m230.845 427.101c0 21.614-17.521 39.135-39.135 39.135s-39.135-17.521-39.135-39.135z" fill="#6c6cff"/><path d="m189.776 45.398c-70.089 1.015-127.317 58.07-128.532 128.156-.594 34.244 12.007 65.537 33.055 89.133 28.638 32.106 49.306 70.501 58.888 112.436h77.046c9.561-41.845 30.063-80.255 58.705-112.231 20.681-23.088 33.259-53.585 33.259-87.021 0-72.71-59.469-131.53-132.421-130.473z" fill="#ffc599"/><path d="m270.09 202.627c0 49.824-35.092 114.829-78.38 114.829s-78.38-65.005-78.38-114.829 35.092-65.599 78.38-65.599 78.38 15.775 78.38 65.599z" fill="#ffab66"/><g><path d="m225.328 231.441c-2.715-.86-5.615.648-6.473 3.365-.753 2.383-1.463 4.813-2.136 7.278l-8.217-5.921c-1.832-1.319-4.31-1.295-6.116.061l-10.741 8.073-11.288-8.134c-1.832-1.319-4.31-1.295-6.116.061l-7.584 5.7c-.66-2.41-1.356-4.787-2.092-7.118-.859-2.717-3.758-4.223-6.473-3.366-2.717.858-4.224 3.756-3.366 6.473 14.572 46.136 13.208 112.951 13.192 113.621-.066 2.848 2.189 5.211 5.037 5.277.041.001.082.002.122.002 2.793 0 5.089-2.231 5.155-5.038.048-2.059.795-38.421-4.794-76.521l3.964-2.98 11.292 8.138c.901.65 1.959.974 3.016.974 1.092 0 2.183-.346 3.101-1.036l10.738-8.076 4.405 3.176c-5.558 38.029-4.814 74.27-4.766 76.325.066 2.808 2.362 5.038 5.155 5.038.041 0 .082-.001.123-.002 2.848-.066 5.103-2.429 5.037-5.278-.016-.669-1.391-67.449 13.191-113.62.858-2.716-.649-5.614-3.366-6.472zm-16.827 30.242c-1.832-1.32-4.311-1.296-6.118.061l-10.738 8.076-11.291-8.138c-1.831-1.32-4.31-1.297-6.117.062l-2.682 2.017c-.668-3.675-1.402-7.334-2.207-10.951l8.058-6.056 11.288 8.134c1.833 1.32 4.311 1.296 6.116-.061l10.741-8.073 8.506 6.129c-.821 3.694-1.568 7.432-2.246 11.185z" fill="#ff8b00"/></g><g><path d="m233.904 434.421h-84.389c-6.373 0-11.54-5.167-11.54-11.54v-58.525c0-6.373 5.167-11.54 11.54-11.54h84.389c6.373 0 11.54 5.167 11.54 11.54v58.525c0 6.373-5.166 11.54-11.54 11.54z" fill="#b3b3ff"/><g><g><path d="m137.976 370.507h107.469v14.559h-107.469z" fill="#d9d9ff"/></g><path d="m137.976 400.171h107.469v14.559h-107.469z" fill="#d9d9ff"/></g></g></g><g fill="#00c"><path d="m449.035 145.712-20.38-3.24c-1.329-3.862-2.909-7.671-4.723-11.38l12.125-16.706c4.447-6.133 3.786-14.473-1.572-19.831l-19.92-19.92c-5.362-5.362-13.701-6.021-19.823-1.57l-16.703 12.131c-3.71-1.817-7.523-3.4-11.392-4.73l-3.239-20.363c-1.18-7.487-7.542-12.922-15.128-12.922h-28.17c-7.571 0-13.933 5.43-15.128 12.915l-3.24 20.372c-3.373 1.162-6.706 2.52-9.968 4.053-1.604-1.752-3.255-3.471-4.959-5.151-26.036-25.661-60.495-39.487-97.106-38.969-35.204.507-68.429 14.583-93.554 39.632s-39.3 58.23-39.913 93.431c-.589 34.205 11.602 67.075 34.328 92.554 22.57 25.303 39.44 53.652 50.22 84.313-4.682 2.924-7.813 8.109-7.813 14.024v58.525c0 9.054 7.315 16.423 16.344 16.53 5.394 18.671 22.6 31.829 42.391 31.829 19.792 0 36.997-13.159 42.391-31.829 9.029-.107 16.344-7.476 16.344-16.53v-58.525c0-5.921-3.137-11.109-7.826-14.032 10.791-30.753 27.603-59.031 50.047-84.098.102-.114.2-.23.301-.344 2.884 1.31 5.816 2.487 8.777 3.505l3.24 20.372c1.194 7.482 7.556 12.912 15.127 12.912h28.17c7.586 0 13.949-5.435 15.127-12.915l3.24-20.37c3.868-1.331 7.68-2.914 11.392-4.73l16.702 12.129c6.126 4.453 14.463 3.793 19.825-1.569l19.92-19.92c5.358-5.358 6.019-13.698 1.57-19.833l-12.124-16.696c1.815-3.716 3.396-7.528 4.724-11.388l20.373-3.239c7.481-1.179 12.912-7.542 12.912-15.129v-28.17c-.004-7.571-5.43-13.934-12.909-15.128zm-208.591 277.169c0 3.606-2.934 6.54-6.54 6.54h-28.206c-2.761 0-5 2.239-5 5s2.239 5 5 5h17.86c-4.99 12.939-17.546 21.819-31.848 21.819s-26.858-8.88-31.848-21.819h17.027c2.761 0 5-2.239 5-5s-2.239-5-5-5h-27.373c-3.606 0-6.54-2.934-6.54-6.54v-58.525c0-3.606 2.934-6.54 6.54-6.54h84.389c3.606 0 6.54 2.934 6.54 6.54v58.525zm-7.538-75.065h-82.407c-11.202-32.205-28.828-61.951-52.468-88.454-21.047-23.597-32.338-54.042-31.792-85.725 1.166-66.988 56.619-122.271 123.614-123.237 33.883-.493 65.827 12.325 89.942 36.092 24.121 23.773 37.405 55.515 37.405 89.379 0 30.935-11.359 60.655-31.985 83.685-23.521 26.269-41.093 55.951-52.309 88.26zm219.034-158.806c0 2.635-1.879 4.843-4.475 5.252l-23.4 3.72c-1.883.299-3.432 1.644-3.993 3.466-1.623 5.268-3.778 10.466-6.405 15.451-.888 1.685-.742 3.728.377 5.269l13.918 19.167c1.545 2.13 1.314 5.027-.547 6.889l-19.92 19.92c-1.862 1.861-4.752 2.094-6.876.55l-19.18-13.93c-1.543-1.122-3.59-1.267-5.275-.375-4.969 2.628-10.165 4.785-15.445 6.412-1.822.562-3.167 2.11-3.466 3.993l-3.721 23.396c-.409 2.595-2.617 4.479-5.25 4.479h-28.17c-2.628 0-4.837-1.888-5.252-4.485l-3.72-23.39c-.3-1.884-1.645-3.433-3.468-3.994-2.722-.837-5.426-1.837-8.095-2.955 7.281-9.569 13.217-20.001 17.69-31.02 5.448 1.778 11.126 2.686 16.926 2.686 30.103 0 54.594-24.485 54.594-54.582 0-27.611-20.652-50.907-48.04-54.189-2.74-.333-5.231 1.627-5.559 4.37-.329 2.742 1.627 5.23 4.37 5.559 22.364 2.68 39.229 21.708 39.229 44.26 0 24.583-20.005 44.582-44.594 44.582-4.63 0-9.161-.71-13.512-2.094 4.284-13.306 6.522-27.306 6.522-41.548 0-30.652-10.086-59.69-28.69-83.403 3.011-1.307 6.072-2.465 9.165-3.42 1.821-.562 3.164-2.11 3.463-3.992l3.719-23.387c.415-2.601 2.624-4.488 5.252-4.488h28.17c2.633 0 4.841 1.883 5.251 4.485l3.72 23.39c.299 1.883 1.644 3.432 3.466 3.993 5.282 1.627 10.478 3.785 15.444 6.412 1.686.891 3.733.747 5.276-.375l19.181-13.931c2.122-1.542 5.014-1.311 6.875.551l19.92 19.92c1.862 1.862 2.092 4.759.549 6.887l-13.92 19.18c-1.119 1.542-1.264 3.587-.375 5.272 2.624 4.968 4.778 10.162 6.403 15.437.562 1.822 2.11 3.167 3.993 3.466l23.397 3.72c2.595.414 4.478 2.623 4.478 5.252z"/><path d="m276.868 331.101h18.583c2.761 0 5-2.239 5-5s-2.239-5-5-5h-18.583c-2.761 0-5 2.239-5 5s2.238 5 5 5z"/><path d="m335.45 341.482h-58.583c-2.761 0-5 2.239-5 5s2.239 5 5 5h58.583c2.761 0 5-2.239 5-5s-2.239-5-5-5z"/><path d="m335.45 361.864h-58.583c-2.761 0-5 2.239-5 5s2.239 5 5 5h58.583c2.761 0 5-2.239 5-5s-2.239-5-5-5z"/></g></g></g><g><g><path d="m79.544 369.149c-2.761 0-5-2.239-5-5 0-3.492-2.841-6.333-6.333-6.333-2.761 0-5-2.239-5-5s2.239-5 5-5c3.492 0 6.333-2.841 6.333-6.333 0-2.761 2.239-5 5-5s5 2.239 5 5c0 3.492 2.841 6.333 6.333 6.333 2.761 0 5 2.239 5 5s-2.239 5-5 5c-3.492 0-6.333 2.841-6.333 6.333 0 2.761-2.238 5-5 5z" fill="#ffab66"/></g><g><path d="m393.541 345.122c-2.761 0-5-2.239-5-5 0-3.492-2.841-6.333-6.333-6.333-2.761 0-5-2.239-5-5s2.239-5 5-5c3.492 0 6.333-2.841 6.333-6.333 0-2.761 2.239-5 5-5s5 2.239 5 5c0 3.492 2.841 6.333 6.333 6.333 2.761 0 5 2.239 5 5s-2.239 5-5 5c-3.492 0-6.333 2.841-6.333 6.333 0 2.761-2.239 5-5 5z" fill="#ff6c6c"/></g><g><path d="m397.208 51.097c-1.28 0-2.559-.488-3.536-1.464l-5.464-5.464-5.464 5.464c-1.953 1.952-5.118 1.952-7.071 0-1.953-1.953-1.953-5.119 0-7.071l9-9c1.953-1.952 5.118-1.952 7.071 0l9 9c1.953 1.953 1.953 5.119 0 7.071-.977.976-2.257 1.464-3.536 1.464z" fill="#8383ff"/></g><g><path d="m438.209 370.108c-1.28 0-2.559-.488-3.536-1.464l-5.464-5.464-5.464 5.464c-1.953 1.952-5.118 1.952-7.071 0-1.953-1.953-1.953-5.119 0-7.071l9-9c1.953-1.952 5.118-1.952 7.071 0l9 9c1.953 1.953 1.953 5.119 0 7.071-.977.976-2.256 1.464-3.536 1.464z" fill="#ffab66"/></g><g><path d="m70.223 303.506c-1.28 0-2.559-.488-3.536-1.464l-5.464-5.464-5.464 5.464c-1.953 1.952-5.118 1.952-7.071 0-1.953-1.953-1.953-5.119 0-7.071l9-9c1.953-1.952 5.118-1.952 7.071 0l9 9c1.953 1.953 1.953 5.119 0 7.071-.977.976-2.256 1.464-3.536 1.464z" fill="#8383ff"/></g></g></g><g fill="#ff7300"><circle cx="172.087" cy="183.795" r="5"/><circle cx="191.71" cy="183.795" r="5"/><circle cx="211.333" cy="183.795" r="5"/></g></g></g></svg>