<?xml version="1.0" encoding="utf-8"?>
<!-- Generator: Adobe Illustrator 25.1.0, SVG Export Plug-In . SVG Version: 6.00 Build 0)  -->
<svg version="1.1" id="Warstwa_1" xmlns="http://www.w3.org/2000/svg" xmlns:xlink="http://www.w3.org/1999/xlink" x="0px" y="0px"
	 viewBox="0 0 300 168" style="enable-background:new 0 0 300 168;" xml:space="preserve">
<style type="text/css">
	.st0{fill:none;stroke:#383838;stroke-width:5;}
	.st1{fill:#383838;}
	.st2{clip-path:url(#SVGID_2_);}
	.st3{enable-background:new    ;}
</style>
<g id="Component_5_4">
	<g id="Component_3_1" transform="translate(13 0.5)">
		<line id="Line_11" class="st0" x1="8.6" y1="0.8" x2="7.6" y2="94.8"/>
		<g id="Polygon_1" transform="translate(30 123.5) rotate(180)">
			<path class="st1" d="M36.1,28.7H7.7L21.9,0.4L36.1,28.7z"/>
			<path class="st1" d="M21.9,1.5L8.6,28.2h26.8L21.9,1.5 M21.9-0.8l15,30h-30L21.9-0.8z"/>
		</g>
	</g>
	<g id="Component_3_2" transform="translate(85.776)">
		<line id="Line_11-2" class="st0" x1="8.6" y1="0.8" x2="7.6" y2="94.8"/>
		<g id="Polygon_1-2" transform="translate(30 123.5) rotate(180)">
			<path class="st1" d="M36.1,28.7H7.7L21.9,0.4L36.1,28.7z"/>
			<path class="st1" d="M21.9,1.5L8.6,28.2h26.8L21.9,1.5 M21.9-0.8l15,30h-30L21.9-0.8z"/>
		</g>
	</g>
	<g id="Component_3_3" transform="translate(149.892 124.5) rotate(180)">
		<line id="Line_11-3" class="st0" x1="22.4" y1="-0.8" x2="21.4" y2="93.2"/>
		<g id="Polygon_1-3" transform="translate(30 123.5) rotate(180)">
			<path class="st1" d="M22.3,30.3H-6.1L8.1,1.9L22.3,30.3z"/>
			<path class="st1" d="M8.1,3L-5.3,29.8h26.8L8.1,3 M8.1,0.8l15,30h-30L8.1,0.8z"/>
		</g>
	</g>
	<g id="Component_3_4" transform="translate(222.996 123.5) rotate(180)">
		<line id="Line_11-4" class="st0" x1="22.4" y1="-0.8" x2="21.4" y2="93.2"/>
		<g id="Polygon_1-4" transform="translate(30 123.5) rotate(180)">
			<path class="st1" d="M22.3,30.3H-6.1L8.1,1.9L22.3,30.3z"/>
			<path class="st1" d="M8.1,3L-5.3,29.8h26.8L8.1,3 M8.1,0.8l15,30h-30L8.1,0.8z"/>
		</g>
	</g>
	<g id="Component_3_5" transform="translate(226)">
		<line id="Line_11-5" class="st0" x1="8.6" y1="0.8" x2="7.6" y2="94.8"/>
		<g id="Polygon_1-5" transform="translate(30 123.5) rotate(180)">
			<path class="st1" d="M36.1,28.7H7.7L21.9,0.4L36.1,28.7z"/>
			<path class="st1" d="M21.9,1.5L8.6,28.2h26.8L21.9,1.5 M21.9-0.8l15,30h-30L21.9-0.8z"/>
		</g>
	</g>
	<g>
		<defs>
			<rect id="SVGID_1_" x="256.1" y="1.8" width="26" height="123.5"/>
		</defs>
		<clipPath id="SVGID_2_">
			<use xlink:href="#SVGID_1_"  style="overflow:visible;"/>
		</clipPath>
		<g id="Scroll_Group_1" transform="translate(261 1)" class="st2">
			<g id="Component_3_6" transform="translate(30 123.5) rotate(180)">
				<line id="Line_11-6" class="st0" x1="22.4" y1="-0.8" x2="21.4" y2="93.2"/>
				<g id="Polygon_1-6" transform="translate(30 123.5) rotate(180)">
					<path class="st1" d="M22.3,30.3H-6.1L8.1,1.9L22.3,30.3z"/>
					<path class="st1" d="M8.1,3L-5.3,29.8h26.8L8.1,3 M8.1,0.8l15,30h-30L8.1,0.8z"/>
				</g>
			</g>
		</g>
	</g>
	<g id="Component_4_1" transform="translate(0 133)">
		<g class="st3">
			<path class="st1" d="M17.7,27.8V15h-4v-0.8c0.8-0.1,1.5-0.2,2.1-0.3c0.6-0.2,1.1-0.4,1.4-0.7c0.4-0.3,0.7-0.6,1-1
				s0.5-0.8,0.7-1.3h2.5v16.9H17.7z"/>
			<path class="st1" d="M61.3,28.1c-0.7,0-1.5-0.1-2.3-0.4s-1.6-0.7-2.3-1.2c-0.8,0.5-1.7,0.9-2.7,1.2s-2.1,0.4-3.3,0.4
				c-1,0-1.9-0.1-2.7-0.3s-1.4-0.5-2-0.9c-0.5-0.4-0.9-0.9-1.2-1.4c-0.3-0.6-0.4-1.2-0.4-1.8c0-0.7,0.1-1.4,0.4-1.9s0.7-1.1,1.1-1.6
				c0.5-0.5,1-1,1.6-1.4c0.6-0.4,1.3-0.8,1.9-1.2c-0.3-0.7-0.5-1.5-0.7-2.2s-0.2-1.4-0.2-2.1c0-0.7,0.1-1.3,0.4-1.9s0.7-1.2,1.2-1.7
				c0.5-0.5,1.1-0.9,1.8-1.2s1.5-0.5,2.4-0.5c0.6,0,1.2,0.1,1.8,0.2s1.2,0.4,1.6,0.7c0.5,0.3,0.9,0.8,1.2,1.3
				c0.3,0.5,0.5,1.2,0.5,1.9c0,0.7-0.2,1.3-0.5,1.8c-0.3,0.5-0.7,1.1-1.3,1.5c-0.5,0.5-1.1,0.9-1.8,1.3c-0.7,0.4-1.3,0.8-2,1.2
				c0.4,0.9,0.9,1.8,1.4,2.6s1.1,1.6,1.7,2.3c0.4-0.4,0.9-0.9,1.3-1.4c0.4-0.5,0.8-1,1.1-1.5c0.3-0.5,0.6-0.9,0.9-1.4
				s0.5-0.9,0.7-1.2l2.2,1.5c-0.7,1.1-1.4,2.1-2.1,3.1s-1.4,1.9-2.2,2.7c0.5,0.4,1,0.7,1.5,0.9s1,0.3,1.5,0.3c0.4,0,0.8-0.1,1.1-0.2
				c0.3-0.1,0.6-0.3,0.8-0.5c0.2-0.2,0.5-0.5,0.6-0.8s0.4-0.7,0.5-1.1l1.8,0.8c-0.4,1.5-1.1,2.5-2,3.2S62.8,28.1,61.3,28.1z
				 M51.5,25.7c0.5,0,1.1-0.1,1.6-0.3s1-0.4,1.6-0.7c-0.8-0.7-1.5-1.5-2.1-2.3s-1.3-1.7-1.8-2.6c-0.6,0.5-1.1,1-1.5,1.5
				s-0.6,1.1-0.6,1.7c0,0.4,0.1,0.7,0.2,1s0.3,0.6,0.5,0.9c0.2,0.2,0.5,0.4,0.9,0.6S51,25.7,51.5,25.7z M52.7,12.7
				c0,0.4,0,0.8,0.1,1.2s0.2,0.9,0.3,1.3c0.4-0.3,0.8-0.5,1.2-0.8s0.7-0.6,1-0.9s0.5-0.6,0.6-1s0.2-0.7,0.2-1.1c0-0.4,0-0.6-0.1-0.9
				s-0.2-0.4-0.3-0.6s-0.3-0.2-0.5-0.3s-0.4-0.1-0.6-0.1c-0.3,0-0.5,0.1-0.7,0.2s-0.4,0.4-0.6,0.6c-0.2,0.3-0.3,0.6-0.4,1
				C52.8,11.9,52.7,12.3,52.7,12.7z"/>
			<path class="st1" d="M83.1,27.8V27c1.2-1.1,2.2-2.1,3.1-3s1.6-1.6,2.2-2.3c0.6-0.7,1.1-1.2,1.5-1.7c0.4-0.5,0.7-0.9,0.9-1.3
				c0.2-0.4,0.3-0.7,0.4-1.1c0.1-0.3,0.1-0.6,0.1-1c0-0.4-0.1-0.9-0.2-1.3c-0.1-0.4-0.3-0.8-0.5-1.1s-0.5-0.6-0.9-0.7
				s-0.7-0.3-1.2-0.3c-0.4,0-0.7,0.1-1.1,0.2c-0.4,0.2-0.7,0.4-1,0.6s-0.5,0.6-0.7,0.9c-0.2,0.3-0.3,0.7-0.4,1.1h-1.8
				c0.1-0.7,0.3-1.4,0.6-2.1s0.8-1.2,1.3-1.7s1.1-0.9,1.8-1.2c0.7-0.3,1.4-0.4,2.1-0.4c0.9,0,1.8,0.1,2.5,0.4s1.3,0.6,1.8,1
				s0.8,0.9,1.1,1.5s0.4,1.2,0.4,1.8c0,0.6-0.1,1.2-0.4,1.9c-0.3,0.7-0.7,1.4-1.3,2.1c-0.6,0.8-1.4,1.6-2.3,2.6s-2,2-3.3,3.2H96
				l-1.5,2.4H83.1z"/>
			<path class="st1" d="M131.9,28.1c-0.7,0-1.5-0.1-2.3-0.4s-1.6-0.7-2.3-1.2c-0.8,0.5-1.7,0.9-2.7,1.2s-2.1,0.4-3.3,0.4
				c-1,0-1.9-0.1-2.7-0.3s-1.4-0.5-2-0.9c-0.5-0.4-0.9-0.9-1.2-1.4c-0.3-0.6-0.4-1.2-0.4-1.8c0-0.7,0.1-1.4,0.4-1.9s0.7-1.1,1.1-1.6
				c0.5-0.5,1-1,1.6-1.4c0.6-0.4,1.3-0.8,1.9-1.2c-0.3-0.7-0.5-1.5-0.7-2.2s-0.2-1.4-0.2-2.1c0-0.7,0.1-1.3,0.4-1.9s0.7-1.2,1.2-1.7
				c0.5-0.5,1.1-0.9,1.8-1.2s1.5-0.5,2.4-0.5c0.6,0,1.2,0.1,1.8,0.2s1.2,0.4,1.6,0.7c0.5,0.3,0.9,0.8,1.2,1.3
				c0.3,0.5,0.5,1.2,0.5,1.9c0,0.7-0.2,1.3-0.5,1.8c-0.3,0.5-0.7,1.1-1.3,1.5c-0.5,0.5-1.1,0.9-1.8,1.3c-0.7,0.4-1.3,0.8-2,1.2
				c0.4,0.9,0.9,1.8,1.4,2.6s1.1,1.6,1.7,2.3c0.4-0.4,0.9-0.9,1.3-1.4c0.4-0.5,0.8-1,1.1-1.5c0.3-0.5,0.6-0.9,0.9-1.4
				s0.5-0.9,0.7-1.2l2.2,1.5c-0.7,1.1-1.4,2.1-2.1,3.1s-1.4,1.9-2.2,2.7c0.5,0.4,1,0.7,1.5,0.9s1,0.3,1.5,0.3c0.4,0,0.8-0.1,1.1-0.2
				c0.3-0.1,0.6-0.3,0.8-0.5c0.2-0.2,0.5-0.5,0.6-0.8s0.4-0.7,0.5-1.1l1.8,0.8c-0.4,1.5-1.1,2.5-2,3.2S133.3,28.1,131.9,28.1z
				 M122,25.7c0.5,0,1.1-0.1,1.6-0.3s1-0.4,1.6-0.7c-0.8-0.7-1.5-1.5-2.1-2.3s-1.3-1.7-1.8-2.6c-0.6,0.5-1.1,1-1.5,1.5
				s-0.6,1.1-0.6,1.7c0,0.4,0.1,0.7,0.2,1s0.3,0.6,0.5,0.9c0.2,0.2,0.5,0.4,0.9,0.6S121.5,25.7,122,25.7z M123.3,12.7
				c0,0.4,0,0.8,0.1,1.2s0.2,0.9,0.3,1.3c0.4-0.3,0.8-0.5,1.2-0.8s0.7-0.6,1-0.9s0.5-0.6,0.6-1s0.2-0.7,0.2-1.1c0-0.4,0-0.6-0.1-0.9
				s-0.2-0.4-0.3-0.6s-0.3-0.2-0.5-0.3s-0.4-0.1-0.6-0.1c-0.3,0-0.5,0.1-0.7,0.2s-0.4,0.4-0.6,0.6c-0.2,0.3-0.3,0.6-0.4,1
				C123.3,11.9,123.3,12.3,123.3,12.7z"/>
			<path class="st1" d="M157,18.9c0.6-0.1,1.2-0.2,1.7-0.4s0.9-0.4,1.3-0.8c0.4-0.3,0.6-0.7,0.8-1.1c0.2-0.4,0.3-0.8,0.3-1.3
				c0-0.3-0.1-0.6-0.2-0.9c-0.1-0.3-0.3-0.5-0.4-0.7c-0.2-0.2-0.4-0.4-0.7-0.5s-0.6-0.2-0.9-0.2c-0.2,0-0.5,0.1-0.8,0.2
				s-0.6,0.3-0.8,0.5c-0.3,0.2-0.5,0.4-0.8,0.7s-0.5,0.6-0.7,0.9l-1.5-0.7c0.2-0.5,0.5-1,0.8-1.5c0.3-0.5,0.7-0.9,1.2-1.2
				s1-0.6,1.5-0.8c0.6-0.2,1.2-0.3,1.9-0.3c0.7,0,1.3,0.1,1.9,0.3s1.1,0.4,1.6,0.8c0.4,0.3,0.8,0.7,1,1.2c0.3,0.5,0.4,0.9,0.4,1.5
				c0,0.2-0.1,0.5-0.2,0.8c-0.1,0.3-0.3,0.6-0.5,0.9c-0.2,0.3-0.4,0.6-0.7,0.9c-0.3,0.3-0.6,0.6-0.9,0.8c0.4,0.2,0.9,0.5,1.3,0.8
				c0.4,0.3,0.7,0.7,1,1s0.5,0.8,0.7,1.2c0.2,0.4,0.2,0.8,0.2,1.3c0,1-0.2,1.9-0.6,2.6s-1,1.4-1.7,1.9c-0.7,0.5-1.6,0.9-2.5,1.1
				c-1,0.2-2,0.4-3.1,0.4c-1.1,0-2-0.2-2.6-0.5s-0.9-0.7-0.9-1.2c0-0.2,0.1-0.4,0.2-0.6c0.1-0.2,0.3-0.3,0.5-0.4s0.4-0.2,0.6-0.2
				s0.4-0.1,0.7-0.1c0.4,0,0.8,0.1,1.1,0.2c0.3,0.1,0.6,0.3,0.9,0.4c0.3,0.1,0.5,0.3,0.7,0.4c0.2,0.1,0.4,0.2,0.7,0.2
				c0.4,0,0.8-0.1,1.2-0.2s0.6-0.4,0.9-0.7c0.2-0.3,0.4-0.6,0.5-1s0.2-0.7,0.2-1.1c0-0.5-0.1-1-0.3-1.4s-0.5-0.8-1-1.1
				c-0.4-0.3-1-0.6-1.6-0.7c-0.7-0.2-1.5-0.3-2.4-0.3V18.9z"/>
			<path class="st1" d="M202.4,28.1c-0.7,0-1.5-0.1-2.3-0.4s-1.6-0.7-2.3-1.2c-0.8,0.5-1.7,0.9-2.7,1.2s-2.1,0.4-3.3,0.4
				c-1,0-1.9-0.1-2.7-0.3s-1.4-0.5-2-0.9c-0.5-0.4-0.9-0.9-1.2-1.4c-0.3-0.6-0.4-1.2-0.4-1.8c0-0.7,0.1-1.4,0.4-1.9s0.7-1.1,1.1-1.6
				c0.5-0.5,1-1,1.6-1.4c0.6-0.4,1.3-0.8,1.9-1.2c-0.3-0.7-0.5-1.5-0.7-2.2s-0.2-1.4-0.2-2.1c0-0.7,0.1-1.3,0.4-1.9s0.7-1.2,1.2-1.7
				c0.5-0.5,1.1-0.9,1.8-1.2s1.5-0.5,2.4-0.5c0.6,0,1.2,0.1,1.8,0.2s1.2,0.4,1.6,0.7c0.5,0.3,0.9,0.8,1.2,1.3
				c0.3,0.5,0.5,1.2,0.5,1.9c0,0.7-0.2,1.3-0.5,1.8c-0.3,0.5-0.7,1.1-1.3,1.5c-0.5,0.5-1.1,0.9-1.8,1.3c-0.7,0.4-1.3,0.8-2,1.2
				c0.4,0.9,0.9,1.8,1.4,2.6s1.1,1.6,1.7,2.3c0.4-0.4,0.9-0.9,1.3-1.4c0.4-0.5,0.8-1,1.1-1.5c0.3-0.5,0.6-0.9,0.9-1.4
				s0.5-0.9,0.7-1.2l2.2,1.5c-0.7,1.1-1.4,2.1-2.1,3.1s-1.4,1.9-2.2,2.7c0.5,0.4,1,0.7,1.5,0.9s1,0.3,1.5,0.3c0.4,0,0.8-0.1,1.1-0.2
				c0.3-0.1,0.6-0.3,0.8-0.5c0.2-0.2,0.5-0.5,0.6-0.8s0.4-0.7,0.5-1.1l1.8,0.8c-0.4,1.5-1.1,2.5-2,3.2S203.8,28.1,202.4,28.1z
				 M192.6,25.7c0.5,0,1.1-0.1,1.6-0.3s1-0.4,1.6-0.7c-0.8-0.7-1.5-1.5-2.1-2.3s-1.3-1.7-1.8-2.6c-0.6,0.5-1.1,1-1.5,1.5
				s-0.6,1.1-0.6,1.7c0,0.4,0.1,0.7,0.2,1s0.3,0.6,0.5,0.9c0.2,0.2,0.5,0.4,0.9,0.6S192,25.7,192.6,25.7z M193.8,12.7
				c0,0.4,0,0.8,0.1,1.2s0.2,0.9,0.3,1.3c0.4-0.3,0.8-0.5,1.2-0.8s0.7-0.6,1-0.9s0.5-0.6,0.6-1s0.2-0.7,0.2-1.1c0-0.4,0-0.6-0.1-0.9
				s-0.2-0.4-0.3-0.6s-0.3-0.2-0.5-0.3s-0.4-0.1-0.6-0.1c-0.3,0-0.5,0.1-0.7,0.2s-0.4,0.4-0.6,0.6c-0.2,0.3-0.3,0.6-0.4,1
				C193.9,11.9,193.8,12.3,193.8,12.7z"/>
			<path class="st1" d="M231.3,23.6h-7.6v-1.8l8.6-11h2.6v10.4h2.3v2.4h-2.3v4.1h-3.7V23.6z M226.9,21.3h4.4v-5.7L226.9,21.3z"/>
			<path class="st1" d="M272.9,28.1c-0.7,0-1.5-0.1-2.3-0.4s-1.6-0.7-2.3-1.2c-0.8,0.5-1.7,0.9-2.7,1.2s-2.1,0.4-3.3,0.4
				c-1,0-1.9-0.1-2.7-0.3s-1.4-0.5-2-0.9c-0.5-0.4-0.9-0.9-1.2-1.4c-0.3-0.6-0.4-1.2-0.4-1.8c0-0.7,0.1-1.4,0.4-1.9s0.7-1.1,1.1-1.6
				c0.5-0.5,1-1,1.6-1.4c0.6-0.4,1.3-0.8,1.9-1.2c-0.3-0.7-0.5-1.5-0.7-2.2s-0.2-1.4-0.2-2.1c0-0.7,0.1-1.3,0.4-1.9s0.7-1.2,1.2-1.7
				c0.5-0.5,1.1-0.9,1.8-1.2s1.5-0.5,2.4-0.5c0.6,0,1.2,0.1,1.8,0.2s1.2,0.4,1.6,0.7c0.5,0.3,0.9,0.8,1.2,1.3
				c0.3,0.5,0.5,1.2,0.5,1.9c0,0.7-0.2,1.3-0.5,1.8c-0.3,0.5-0.7,1.1-1.3,1.5c-0.5,0.5-1.1,0.9-1.8,1.3c-0.7,0.4-1.3,0.8-2,1.2
				c0.4,0.9,0.9,1.8,1.4,2.6s1.1,1.6,1.7,2.3c0.4-0.4,0.9-0.9,1.3-1.4c0.4-0.5,0.8-1,1.1-1.5c0.3-0.5,0.6-0.9,0.9-1.4
				s0.5-0.9,0.7-1.2l2.2,1.5c-0.7,1.1-1.4,2.1-2.1,3.1s-1.4,1.9-2.2,2.7c0.5,0.4,1,0.7,1.5,0.9s1,0.3,1.5,0.3c0.4,0,0.8-0.1,1.1-0.2
				c0.3-0.1,0.6-0.3,0.8-0.5c0.2-0.2,0.5-0.5,0.6-0.8s0.4-0.7,0.5-1.1l1.8,0.8c-0.4,1.5-1.1,2.5-2,3.2S274.4,28.1,272.9,28.1z
				 M263.1,25.7c0.5,0,1.1-0.1,1.6-0.3s1-0.4,1.6-0.7c-0.8-0.7-1.5-1.5-2.1-2.3s-1.3-1.7-1.8-2.6c-0.6,0.5-1.1,1-1.5,1.5
				s-0.6,1.1-0.6,1.7c0,0.4,0.1,0.7,0.2,1s0.3,0.6,0.5,0.9c0.2,0.2,0.5,0.4,0.9,0.6S262.6,25.7,263.1,25.7z M264.3,12.7
				c0,0.4,0,0.8,0.1,1.2s0.2,0.9,0.3,1.3c0.4-0.3,0.8-0.5,1.2-0.8s0.7-0.6,1-0.9s0.5-0.6,0.6-1s0.2-0.7,0.2-1.1c0-0.4,0-0.6-0.1-0.9
				s-0.2-0.4-0.3-0.6s-0.3-0.2-0.5-0.3s-0.4-0.1-0.6-0.1c-0.3,0-0.5,0.1-0.7,0.2s-0.4,0.4-0.6,0.6c-0.2,0.3-0.3,0.6-0.4,1
				C264.4,11.9,264.3,12.3,264.3,12.7z"/>
		</g>
	</g>
	<g id="Component_3_4_1_" transform="translate(222.996 123.5) rotate(180)">
		<line id="Line_11-4_1_" class="st0" x1="-45.6" y1="-1.8" x2="-46.6" y2="92.2"/>
		<g id="Polygon_1-4_1_" transform="translate(30 123.5) rotate(180)">
			<path class="st1" d="M90.3,31.3H61.9L76.1,2.9L90.3,31.3z"/>
			<path class="st1" d="M76.1,4L62.7,30.8h26.8L76.1,4 M76.1,1.8l15,30h-30L76.1,1.8z"/>
		</g>
	</g>
</g>
</svg>
